<svg width="200" height="200" viewBox="0 0 200 200" fill="none" xmlns="http://www.w3.org/2000/svg">
<path d="M141.597 47.0987C145.247 46.5062 148.559 49.3245 148.558 53.0224L148.544 126.759C148.543 129.701 146.409 132.209 143.506 132.68L38.2698 149.769C35.3659 150.24 32.5478 148.537 31.6162 145.746L8.27064 75.8025C7.09985 72.2948 9.35072 68.573 13.0009 67.9803L141.597 47.0987ZM37.3081 143.846L142.544 126.758L142.558 53.0211L13.9626 73.9027L37.3081 143.846Z" fill="#F08C1F"/>
<path d="M62.755 107.361C63.7624 106.909 64.9456 107.358 65.3984 108.366C67.3295 112.661 70.623 116.201 74.7684 118.436C78.914 120.672 83.681 121.48 88.3315 120.734C92.9821 119.987 97.2572 117.728 100.495 114.307C103.732 110.887 105.752 106.494 106.242 101.81C106.357 100.711 107.34 99.9136 108.439 100.028C109.537 100.143 110.335 101.127 110.22 102.226C109.639 107.785 107.242 112.997 103.4 117.057C99.5578 121.116 94.4847 123.797 88.9659 124.683C83.447 125.569 77.7894 124.61 72.8697 121.957C67.9501 119.304 64.0423 115.103 61.7506 110.005C61.298 108.997 61.7476 107.814 62.755 107.361Z" fill="#F08C1F"/>
<path d="M65.1642 176.336C64.423 171.772 60.1225 168.673 55.5584 169.415C50.9945 170.156 47.8955 174.456 48.6365 179.02C49.3776 183.584 53.6782 186.683 58.2422 185.942L59.2039 191.865C51.369 193.137 43.9863 187.817 42.7141 179.982C41.4419 172.147 46.7619 164.764 54.5967 163.492C62.4316 162.22 69.8143 167.54 71.0866 175.375C72.3588 183.21 67.0388 190.592 59.2039 191.865L58.2422 185.942C62.8063 185.201 65.9053 180.901 65.1642 176.336Z" fill="#F08C1F"/>
<path d="M140.825 164.051C140.084 159.487 135.783 156.388 131.219 157.129C126.655 157.87 123.556 162.17 124.297 166.734C125.038 171.298 129.339 174.397 133.903 173.656L134.865 179.579C127.03 180.851 119.647 175.531 118.375 167.696C117.103 159.861 122.423 152.479 130.257 151.206C138.092 149.934 145.475 155.254 146.747 163.089C148.02 170.924 142.7 178.307 134.865 179.579L133.903 173.656C138.467 172.915 141.566 168.615 140.825 164.051Z" fill="#F08C1F"/>
<path d="M139.839 139.257C141.474 138.992 143.015 140.103 143.281 141.738C143.546 143.373 142.436 144.914 140.801 145.18L42.6891 161.111C41.0537 161.377 39.5126 160.266 39.2471 158.631C38.9815 156.996 40.092 155.455 41.7274 155.189L139.839 139.257Z" fill="#F08C1F"/>
<path d="M77.1988 101.711C77.3758 102.801 76.6355 103.829 75.5452 104.006C74.4549 104.183 73.4276 103.442 73.2505 102.352L70.6495 86.3343C70.4725 85.244 71.2128 84.2167 72.3031 84.0396C73.3934 83.8626 74.4208 84.6029 74.5978 85.6932L77.1988 101.711Z" fill="#F08C1F"/>
<path d="M96.114 98.6393C96.291 99.7296 95.5507 100.757 94.4604 100.934C93.3701 101.111 92.3427 100.371 92.1657 99.2804L89.5647 83.2627C89.3877 82.1724 90.128 81.145 91.2183 80.968C92.3086 80.7909 93.3359 81.5312 93.513 82.6215L96.114 98.6393Z" fill="#F08C1F"/>
<path d="M184.771 6.79781C186.277 6.1069 188.058 6.7676 188.749 8.27353C189.439 9.77945 188.779 11.5603 187.273 12.2512L163.617 23.1043C162.111 23.7952 160.331 23.1345 159.64 21.6286C158.949 20.1227 159.609 18.3418 161.115 17.6509L184.771 6.79781Z" fill="#F08C1F"/>
<path d="M159.807 18.9586C160.585 17.496 162.402 16.9409 163.865 17.719C165.327 18.4971 165.882 20.3138 165.104 21.7765L152.222 45.9929C151.444 47.4556 149.627 48.0106 148.164 47.2325C146.702 46.4543 146.147 44.6377 146.925 43.175L159.807 18.9586Z" fill="#F08C1F"/>
</svg>
