<svg width="200" height="200" viewBox="0 0 200 200" fill="none" xmlns="http://www.w3.org/2000/svg">
<path d="M138.791 48.9147C142.291 47.7213 146.028 49.9474 146.644 53.5937L158.125 121.523C158.615 124.424 156.929 127.253 154.144 128.202L59.6516 160.42C56.867 161.369 53.8041 160.16 52.4201 157.564L20.0115 96.7697C18.2719 93.5064 19.8704 89.4613 23.3705 88.268L138.791 48.9147ZM57.7154 154.741L152.208 122.523L140.728 54.5937L25.3068 93.947L57.7154 154.741Z" fill="#F08C1F"/>
<path d="M75.4102 117.084C76.328 116.47 77.5696 116.716 78.1841 117.633C80.6309 121.287 84.214 124.033 88.3784 125.445C92.5429 126.858 97.0572 126.857 101.222 125.446C105.387 124.034 108.971 121.29 111.418 117.637C113.866 113.984 115.041 109.625 114.762 105.236C114.692 104.134 115.529 103.183 116.631 103.113C117.734 103.043 118.684 103.88 118.754 104.982C119.089 110.249 117.679 115.479 114.742 119.863C111.804 124.247 107.503 127.541 102.506 129.234C97.5078 130.928 92.091 130.928 87.0937 129.233C82.0963 127.538 77.7971 124.243 74.8609 119.858C74.2465 118.94 74.4925 117.699 75.4102 117.084Z" fill="#F08C1F"/>
<path d="M88.1735 180.806C86.8368 176.886 82.575 174.791 78.6545 176.128C74.734 177.464 72.6394 181.726 73.9761 185.647C75.3128 189.567 79.5746 191.662 83.4952 190.325L85.4314 196.004C78.3745 198.41 70.7032 194.64 68.2971 187.583C65.891 180.526 69.6613 172.855 76.7182 170.449C83.7751 168.043 91.4464 171.813 93.8525 178.87C96.2586 185.927 92.4884 193.598 85.4314 196.004L83.4952 190.325C87.4157 188.988 89.5103 184.727 88.1735 180.806Z" fill="#F08C1F"/>
<path d="M156.321 157.571C154.985 153.65 150.723 151.556 146.802 152.893C142.882 154.229 140.787 158.491 142.124 162.412C143.461 166.332 147.722 168.427 151.643 167.09L153.579 172.769C146.522 175.175 138.851 171.405 136.445 164.348C134.039 157.291 137.809 149.62 144.866 147.214C151.923 144.808 159.594 148.578 162 155.635C164.406 162.692 160.636 170.363 153.579 172.769L151.643 167.09C155.563 165.753 157.658 161.492 156.321 157.571Z" fill="#F08C1F"/>
<path d="M151.577 134.36C153.145 133.825 154.85 134.663 155.385 136.231C155.919 137.8 155.082 139.504 153.513 140.039L65.4891 170.051C63.9209 170.586 62.2162 169.748 61.6815 168.18C61.1468 166.612 61.9847 164.907 63.5529 164.372L151.577 134.36Z" fill="#F08C1F"/>
<path d="M88.1599 109.495C88.5164 110.541 87.9578 111.677 86.9123 112.034C85.8669 112.39 84.7304 111.832 84.3739 110.786L79.5332 96.5887C79.1768 95.5433 79.7353 94.4068 80.7808 94.0503C81.8263 93.6938 82.9628 94.2524 83.3192 95.2979L88.1599 109.495Z" fill="#F08C1F"/>
<path d="M172.368 4.72887C173.738 3.79641 175.604 4.15073 176.536 5.52029C177.469 6.88984 177.114 8.75599 175.745 9.68846L155.838 23.2422C154.468 24.1747 152.602 23.8204 151.67 22.4508C150.737 21.0813 151.092 19.2151 152.461 18.2826L172.368 4.72887Z" fill="#F08C1F"/>
<path d="M151.106 20.1605C151.629 18.5884 153.328 17.7381 154.9 18.2613C156.472 18.7845 157.322 20.4831 156.799 22.0551L148.778 46.1559C148.255 47.728 146.556 48.5782 144.984 48.055C143.412 47.5318 142.562 45.8333 143.085 44.2612L151.106 20.1605Z" fill="#F08C1F"/>
<path d="M108.409 93.4217C108.704 92.3575 109.807 91.7343 110.871 92.0296C111.935 92.3251 112.558 93.4275 112.263 94.4918C111.835 96.0315 111.02 97.4308 109.892 98.5808C108.766 99.7298 107.366 100.593 105.813 101.119C104.262 101.645 102.595 101.823 100.941 101.651C99.2873 101.478 97.679 100.959 96.2407 100.131C95.2838 99.5798 94.9544 98.3571 95.505 97.3999C96.056 96.4426 97.2796 96.1135 98.2369 96.6645C99.188 97.2119 100.257 97.5577 101.356 97.6724C102.455 97.7872 103.542 97.6658 104.529 97.331C105.516 96.9965 106.37 96.4607 107.036 95.7811C107.701 95.1027 108.166 94.2946 108.409 93.4217Z" fill="#F08C1F"/>
</svg>
